<?xml version="1.0" encoding="iso-8859-1"?>
<!-- Generator: Adobe Illustrator 19.0.0, SVG Export Plug-In . SVG Version: 6.00 Build 0)  -->
<svg version="1.1" id="Layer_1" xmlns="http://www.w3.org/2000/svg" xmlns:xlink="http://www.w3.org/1999/xlink" x="0px" y="0px"
	 viewBox="0 0 496.158 496.158" style="enable-background:new 0 0 496.158 496.158;" xml:space="preserve">
<path style="fill:#4ABC96;" d="M248.082,0.002C111.07,0.002,0,111.062,0,248.085c0,137,111.07,248.07,248.082,248.07
	c137.006,0,248.076-111.07,248.076-248.07C496.158,111.062,385.088,0.002,248.082,0.002z"/>
<circle style="fill:#353432;" cx="378.479" cy="351.559" r="35.37"/>
<polygon style="fill:#D8D8D8;" points="162.277,81.768 110.166,87.496 110.151,96.402 159.947,90.671 225.523,96.999 
	225.539,88.094 "/>
<polygon style="fill:#C6C5C4;" points="162.277,86.117 110.166,91.844 110.151,96.402 159.947,90.671 225.523,96.999 
	225.539,92.442 "/>
<path style="fill:#282827;" d="M118.683,91.725c-0.884-6.467-5.077-11.07-9.661-10.44c-4.532,0.621-7.388,6.179-6.503,12.653
	c0.834,6.081,4.553,10.495,8.845,10.495c0.271,0,0.544-0.018,0.818-0.055C116.714,103.756,119.568,98.198,118.683,91.725z"/>
<g>
	<path style="fill:#353432;" d="M140.037,93.276c0,0-3.748-1.126-4.186-4.476c-0.431-3.294,3.059-4.516,3.059-4.516
		c-0.19-1.272-1.685-2.633-2.945-2.441l-24.101,3.61c-0.487-0.121-0.993-0.158-1.508-0.088c-2.931,0.402-4.775,3.995-4.203,8.181
		c0.538,3.932,2.942,6.785,5.717,6.785c0.177,0,0.354-0.012,0.53-0.035c0.699-0.096,1.335-0.379,1.893-0.803l23.785-3.566
		c0.611-0.091,1.16-0.423,1.529-0.919C139.975,94.51,140.13,93.887,140.037,93.276z"/>
	<path style="fill:#353432;" d="M232.928,88.588l-38.029-5.228c-0.61-0.082-1.232,0.083-1.724,0.459
		c-0.491,0.375-2.028,2.085-2.624,5.128c-0.729,3.715,1.321,7.405,2.598,7.574l38.03,5.228c0.104,0.013,0.205,0.021,0.308,0.021
		c0.508,0,1.008-0.167,1.417-0.48c0.49-0.375,0.813-0.931,0.894-1.544l1.135-8.54C235.1,89.928,234.204,88.757,232.928,88.588z"/>
</g>
<circle style="fill:#EA4949;" cx="378.639" cy="351.559" r="19.06"/>
<circle style="fill:#353432;" cx="117.679" cy="351.559" r="35.37"/>
<circle style="fill:#EA4949;" cx="117.679" cy="351.559" r="19.06"/>
<polygon style="fill:#D8D8D8;" points="159.947,90.671 112.498,352.617 121.284,354.064 168.87,90.499 "/>
<polygon style="fill:#EDEDED;" points="159.947,90.671 112.498,352.617 116.816,353.87 164.403,90.306 "/>
<g>
	<circle style="fill:#D8D8D8;" cx="117.679" cy="351.559" r="9.152"/>
	<polygon style="fill:#D8D8D8;" points="380.224,347.533 328.426,347.363 328.135,356.685 380.539,356.431 	"/>
	<circle style="fill:#D8D8D8;" cx="378.479" cy="351.559" r="9.152"/>
</g>
<path style="fill:#282827;" d="M241.206,90.157c-1.334-2.642-3.525-4.505-6.169-5.243c-0.8-0.225-1.621-0.337-2.442-0.337
	c-4.663,0-8.789,3.547-10.03,8.627c-1.484,6.08,1.696,12.254,7.09,13.765c0.799,0.224,1.621,0.336,2.443,0.336
	c4.664,0,8.789-3.547,10.028-8.626C242.838,95.764,242.512,92.737,241.206,90.157z"/>
<g>
	<polygon style="fill:#353432;" points="348.655,306.124 322.353,337.207 336.875,344.935 356.493,315.413 390.288,311.529 
		390.288,301 	"/>
	<rect x="170.039" y="334.839" style="fill:#353432;" width="167.42" height="24.723"/>
	<polygon style="fill:#353432;" points="139.347,252.484 132.25,292.924 170.035,359.557 190.058,348.055 	"/>
</g>
<g>
</g>
<g>
</g>
<g>
</g>
<g>
</g>
<g>
</g>
<g>
</g>
<g>
</g>
<g>
</g>
<g>
</g>
<g>
</g>
<g>
</g>
<g>
</g>
<g>
</g>
<g>
</g>
<g>
</g>
</svg>
